<svg width="33" height="33" viewBox="0 0 33 33" fill="none" xmlns="http://www.w3.org/2000/svg">
<path d="M22.6667 8.65479H18.6667C17.9303 8.65479 17.3333 9.25175 17.3333 9.98812V13.9881H22.6667C22.8183 13.9848 22.9621 14.0553 23.0523 14.1773C23.1424 14.2993 23.1677 14.4575 23.12 14.6015L22.1333 17.5348C22.0424 17.804 21.7908 17.986 21.5067 17.9881H17.3333V27.9881C17.3333 28.3563 17.0348 28.6548 16.6667 28.6548H13.3333C12.9651 28.6548 12.6667 28.3563 12.6667 27.9881V17.9881H10.6667C10.2985 17.9881 10 17.6896 10 17.3215V14.6548C10 14.2867 10.2985 13.9881 10.6667 13.9881H12.6667V9.98812C12.6667 7.0426 15.0545 4.65479 18 4.65479H22.6667C23.0348 4.65479 23.3333 4.95327 23.3333 5.32145V7.98812C23.3333 8.35631 23.0348 8.65479 22.6667 8.65479Z" fill="black"/>
</svg>
