<svg width="211" height="23" viewBox="0 0 211 23" fill="none" xmlns="http://www.w3.org/2000/svg">
<path d="M1.42973 5.05094H3.13416L7.48181 15.87L11.8204 5.05094H13.5339L8.13806 18.3218H6.80733L1.42973 5.05094ZM0.873739 5.05094H2.37765L2.62374 13.1447V18.3218H0.873739V5.05094ZM12.5769 5.05094H14.0808V18.3218H12.3308V13.1447L12.5769 5.05094ZM22.7305 16.6356V11.5588C22.7305 11.1699 22.6515 10.8326 22.4935 10.547C22.3416 10.2554 22.1107 10.0305 21.8008 9.87256C21.4909 9.71457 21.1081 9.63558 20.6524 9.63558C20.227 9.63558 19.8533 9.7085 19.5313 9.85433C19.2153 10.0002 18.9662 10.1916 18.7839 10.4285C18.6077 10.6655 18.5196 10.9207 18.5196 11.1942H16.8334C16.8334 10.8417 16.9245 10.4923 17.1068 10.146C17.2891 9.79964 17.5504 9.48671 17.8907 9.20719C18.237 8.9216 18.6502 8.69678 19.1303 8.53271C19.6164 8.36258 20.1572 8.27751 20.7526 8.27751C21.4697 8.27751 22.1016 8.39903 22.6485 8.64209C23.2014 8.88514 23.6329 9.25277 23.9428 9.74495C24.2587 10.2311 24.4167 10.8417 24.4167 11.577V16.1707C24.4167 16.4989 24.4441 16.8483 24.4987 17.2189C24.5595 17.5896 24.6476 17.9086 24.7631 18.1759V18.3218H23.0039C22.9189 18.1273 22.852 17.8691 22.8034 17.547C22.7548 17.2189 22.7305 16.9151 22.7305 16.6356ZM23.0222 12.3426L23.0404 13.5275H21.336C20.8559 13.5275 20.4276 13.567 20.0508 13.646C19.6741 13.7189 19.3581 13.8313 19.1029 13.9832C18.8477 14.1351 18.6533 14.3266 18.5196 14.5575C18.3859 14.7823 18.3191 15.0466 18.3191 15.3504C18.3191 15.6603 18.3889 15.9429 18.5287 16.1981C18.6684 16.4533 18.8781 16.6568 19.1576 16.8088C19.4432 16.9546 19.7926 17.0275 20.2058 17.0275C20.7223 17.0275 21.178 16.9181 21.573 16.6994C21.9679 16.4806 22.2809 16.2133 22.5118 15.8973C22.7487 15.5813 22.8763 15.2745 22.8946 14.9767L23.6146 15.7879C23.5721 16.0431 23.4566 16.3257 23.2683 16.6356C23.0799 16.9455 22.8277 17.2432 22.5118 17.5288C22.2019 17.8083 21.8312 18.0423 21.3998 18.2306C20.9744 18.4129 20.4944 18.5041 19.9597 18.5041C19.2913 18.5041 18.7049 18.3734 18.2006 18.1121C17.7023 17.8509 17.3134 17.5015 17.0339 17.064C16.7605 16.6204 16.6237 16.1252 16.6237 15.5783C16.6237 15.0496 16.727 14.5848 16.9336 14.1838C17.1402 13.7766 17.438 13.4394 17.8269 13.172C18.2158 12.8986 18.6836 12.692 19.2305 12.5522C19.7774 12.4125 20.3881 12.3426 21.0625 12.3426H23.0222ZM33.2852 16.4077V4.32178H34.9805V18.3218H33.431L33.2852 16.4077ZM26.6498 13.5002V13.3088C26.6498 12.5553 26.7409 11.8717 26.9232 11.258C27.1116 10.6382 27.3759 10.1065 27.7162 9.66292C28.0625 9.21935 28.4727 8.87907 28.9467 8.64209C29.4267 8.39903 29.9614 8.27751 30.5508 8.27751C31.1706 8.27751 31.7114 8.38688 32.1732 8.60563C32.6411 8.8183 33.0361 9.13124 33.3581 9.54443C33.6862 9.95155 33.9445 10.4437 34.1329 11.021C34.3212 11.5983 34.4519 12.2515 34.5248 12.9806V13.8192C34.4579 14.5423 34.3273 15.1924 34.1329 15.7697C33.9445 16.347 33.6862 16.8391 33.3581 17.2463C33.0361 17.6534 32.6411 17.9663 32.1732 18.1851C31.7053 18.3977 31.1585 18.5041 30.5326 18.5041C29.9553 18.5041 29.4267 18.3795 28.9467 18.1304C28.4727 17.8812 28.0625 17.5318 27.7162 17.0822C27.3759 16.6325 27.1116 16.1039 26.9232 15.4963C26.7409 14.8825 26.6498 14.2172 26.6498 13.5002ZM28.3451 13.3088V13.5002C28.3451 13.9923 28.3937 14.4542 28.4909 14.8856C28.5942 15.317 28.7522 15.6968 28.9649 16.0249C29.1776 16.353 29.448 16.6113 29.7761 16.7996C30.1042 16.9819 30.4961 17.0731 30.9519 17.0731C31.5109 17.0731 31.9697 16.9546 32.3282 16.7176C32.6928 16.4806 32.9844 16.1677 33.2032 15.7788C33.4219 15.3899 33.5921 14.9676 33.7136 14.5119V12.3153C33.6407 11.9811 33.5343 11.659 33.3946 11.3491C33.2609 11.0331 33.0847 10.7536 32.8659 10.5106C32.6533 10.2614 32.3889 10.064 32.073 9.91813C31.7631 9.7723 31.3954 9.69938 30.9701 9.69938C30.5083 9.69938 30.1103 9.7966 29.7761 9.99105C29.448 10.1794 29.1776 10.4407 28.9649 10.7749C28.7522 11.103 28.5942 11.4858 28.4909 11.9233C28.3937 12.3548 28.3451 12.8166 28.3451 13.3088ZM41.698 18.5041C41.0113 18.5041 40.3885 18.3886 39.8295 18.1577C39.2765 17.9207 38.7995 17.5896 38.3985 17.1642C38.0035 16.7389 37.6997 16.2345 37.487 15.6512C37.2744 15.0679 37.168 14.4298 37.168 13.7371V13.3543C37.168 12.5522 37.2865 11.8383 37.5235 11.2124C37.7605 10.5805 38.0825 10.0457 38.4896 9.60824C38.8967 9.17074 39.3586 8.83957 39.875 8.61475C40.3915 8.38992 40.9263 8.27751 41.4792 8.27751C42.1841 8.27751 42.7917 8.39903 43.3021 8.64209C43.8186 8.88514 44.2409 9.22542 44.5691 9.66292C44.8972 10.0943 45.1402 10.6048 45.2982 11.1942C45.4562 11.7775 45.5352 12.4155 45.5352 13.1082V13.8647H38.1706V12.4884H43.849V12.3608C43.8247 11.9233 43.7336 11.498 43.5756 11.0848C43.4237 10.6716 43.1806 10.3313 42.8464 10.064C42.5122 9.7966 42.0565 9.66292 41.4792 9.66292C41.0964 9.66292 40.744 9.74495 40.4219 9.90902C40.0999 10.067 39.8234 10.304 39.5925 10.62C39.3616 10.9359 39.1823 11.3218 39.0547 11.7775C38.9271 12.2332 38.8633 12.7588 38.8633 13.3543V13.7371C38.8633 14.205 38.9271 14.6456 39.0547 15.0588C39.1884 15.4659 39.3798 15.8244 39.629 16.1343C39.8842 16.4442 40.191 16.6872 40.5495 16.8634C40.9141 17.0397 41.3273 17.1278 41.7891 17.1278C42.3846 17.1278 42.8889 17.0062 43.3021 16.7632C43.7153 16.5201 44.0769 16.195 44.3868 15.7879L45.4076 16.5991C45.1949 16.9212 44.9245 17.228 44.5964 17.5197C44.2683 17.8114 43.8642 18.0483 43.3842 18.2306C42.9102 18.4129 42.3481 18.5041 41.698 18.5041ZM54.6316 16.5718L57.1654 8.4598H58.2774L58.0586 10.0731L55.4792 18.3218H54.3946L54.6316 16.5718ZM52.9271 8.4598L55.0873 16.6629L55.2422 18.3218H54.1029L51.2409 8.4598H52.9271ZM60.7019 16.5991L62.7618 8.4598H64.4388L61.5769 18.3218H60.4467L60.7019 16.5991ZM58.5235 8.4598L61.0026 16.4351L61.2852 18.3218H60.2097L57.5573 10.0548L57.3386 8.4598H58.5235ZM68.0026 8.4598V18.3218H66.3073V8.4598H68.0026ZM66.1797 5.84391C66.1797 5.57047 66.2618 5.33957 66.4258 5.1512C66.596 4.96284 66.8451 4.86865 67.1732 4.86865C67.4953 4.86865 67.7414 4.96284 67.9115 5.1512C68.0877 5.33957 68.1758 5.57047 68.1758 5.84391C68.1758 6.1052 68.0877 6.33002 67.9115 6.51839C67.7414 6.70068 67.4953 6.79183 67.1732 6.79183C66.8451 6.79183 66.596 6.70068 66.4258 6.51839C66.2618 6.33002 66.1797 6.1052 66.1797 5.84391ZM74.8386 8.4598V9.75407H69.5066V8.4598H74.8386ZM71.3112 6.06266H72.9974V15.8791C72.9974 16.2133 73.0491 16.4654 73.1524 16.6356C73.2557 16.8057 73.3894 16.9181 73.5534 16.9728C73.7175 17.0275 73.8937 17.0549 74.0821 17.0549C74.2218 17.0549 74.3677 17.0427 74.5196 17.0184C74.6776 16.988 74.7961 16.9637 74.875 16.9455L74.8842 18.3218C74.7505 18.3643 74.5743 18.4038 74.3555 18.4403C74.1428 18.4828 73.8846 18.5041 73.5808 18.5041C73.1676 18.5041 72.7878 18.422 72.4414 18.258C72.0951 18.0939 71.8186 17.8205 71.612 17.4377C71.4115 17.0488 71.3112 16.5262 71.3112 15.87V6.06266ZM78.5027 4.32178V18.3218H76.8165V4.32178H78.5027ZM78.1016 13.0171L77.3998 12.9897C77.4059 12.3153 77.5061 11.6924 77.7006 11.1213C77.895 10.544 78.1684 10.0427 78.5209 9.61735C78.8733 9.192 79.2926 8.86388 79.7787 8.63297C80.2709 8.396 80.8147 8.27751 81.4102 8.27751C81.8963 8.27751 82.3338 8.34435 82.7227 8.47803C83.1116 8.60563 83.4428 8.81223 83.7162 9.09782C83.9957 9.38341 84.2084 9.75407 84.3542 10.2098C84.5 10.6595 84.573 11.2094 84.573 11.8595V18.3218H82.8777V11.8413C82.8777 11.3248 82.8017 10.9116 82.6498 10.6017C82.4979 10.2858 82.2761 10.0579 81.9844 9.91813C81.6928 9.7723 81.3342 9.69938 80.9089 9.69938C80.4896 9.69938 80.1068 9.78749 79.7605 9.9637C79.4202 10.1399 79.1255 10.383 78.8763 10.6929C78.6333 11.0028 78.4419 11.3582 78.3021 11.7593C78.1684 12.1542 78.1016 12.5735 78.1016 13.0171ZM90.4428 19.6284H109.109V0.961776H90.4428V19.6284ZM115.016 4.32178H116.711V16.4077L116.565 18.3218H115.016V4.32178ZM123.374 13.3088V13.5002C123.374 14.2172 123.289 14.8825 123.119 15.4963C122.948 16.1039 122.699 16.6325 122.371 17.0822C122.043 17.5318 121.642 17.8812 121.168 18.1304C120.694 18.3795 120.15 18.5041 119.537 18.5041C118.911 18.5041 118.361 18.3977 117.887 18.1851C117.419 17.9663 117.024 17.6534 116.702 17.2463C116.38 16.8391 116.122 16.347 115.927 15.7697C115.739 15.1924 115.608 14.5423 115.535 13.8192V12.9806C115.608 12.2515 115.739 11.5983 115.927 11.021C116.122 10.4437 116.38 9.95155 116.702 9.54443C117.024 9.13124 117.419 8.8183 117.887 8.60563C118.355 8.38688 118.898 8.27751 119.518 8.27751C120.138 8.27751 120.688 8.39903 121.168 8.64209C121.648 8.87907 122.049 9.21935 122.371 9.66292C122.699 10.1065 122.948 10.6382 123.119 11.258C123.289 11.8717 123.374 12.5553 123.374 13.3088ZM121.678 13.5002V13.3088C121.678 12.8166 121.633 12.3548 121.542 11.9233C121.451 11.4858 121.305 11.103 121.104 10.7749C120.904 10.4407 120.639 10.1794 120.311 9.99105C119.983 9.7966 119.579 9.69938 119.099 9.69938C118.674 9.69938 118.303 9.7723 117.987 9.91813C117.677 10.064 117.413 10.2614 117.194 10.5106C116.975 10.7536 116.796 11.0331 116.656 11.3491C116.523 11.659 116.422 11.9811 116.356 12.3153V14.5119C116.453 14.9372 116.611 15.3474 116.829 15.7424C117.054 16.1312 117.352 16.4502 117.723 16.6994C118.099 16.9485 118.564 17.0731 119.117 17.0731C119.573 17.0731 119.962 16.9819 120.284 16.7996C120.612 16.6113 120.876 16.353 121.077 16.0249C121.283 15.6968 121.435 15.317 121.533 14.8856C121.63 14.4542 121.678 13.9923 121.678 13.5002ZM128.168 17.3009L130.912 8.4598H132.716L128.76 19.8439C128.669 20.087 128.548 20.3483 128.396 20.6278C128.25 20.9134 128.062 21.1838 127.831 21.439C127.6 21.6942 127.32 21.9008 126.992 22.0588C126.67 22.2228 126.284 22.3049 125.835 22.3049C125.701 22.3049 125.531 22.2866 125.324 22.2502C125.118 22.2137 124.972 22.1833 124.887 22.159L124.878 20.7918C124.926 20.7979 125.002 20.804 125.106 20.8101C125.215 20.8222 125.291 20.8283 125.333 20.8283C125.716 20.8283 126.041 20.7766 126.309 20.6733C126.576 20.5761 126.801 20.409 126.983 20.172C127.171 19.9411 127.333 19.6221 127.466 19.215L128.168 17.3009ZM126.154 8.4598L128.715 16.116L129.152 17.8934L127.94 18.5132L124.313 8.4598H126.154ZM144.037 6.22672L139.643 18.3218H137.848L142.906 5.05094H144.064L144.037 6.22672ZM147.719 18.3218L143.316 6.22672L143.289 5.05094H144.447L149.523 18.3218H147.719ZM147.491 13.409V14.8491H140.035V13.409H147.491ZM152.878 8.4598V18.3218H151.182V8.4598H152.878ZM151.055 5.84391C151.055 5.57047 151.137 5.33957 151.301 5.1512C151.471 4.96284 151.72 4.86865 152.048 4.86865C152.37 4.86865 152.616 4.96284 152.787 5.1512C152.963 5.33957 153.051 5.57047 153.051 5.84391C153.051 6.1052 152.963 6.33002 152.787 6.51839C152.616 6.70068 152.37 6.79183 152.048 6.79183C151.72 6.79183 151.471 6.70068 151.301 6.51839C151.137 6.33002 151.055 6.1052 151.055 5.84391ZM157.271 10.0093V18.3218H155.585V8.4598H157.225L157.271 10.0093ZM160.352 8.40511L160.342 9.97282C160.203 9.94244 160.069 9.92421 159.941 9.91813C159.82 9.90598 159.68 9.8999 159.522 9.8999C159.133 9.8999 158.79 9.96067 158.492 10.0822C158.194 10.2037 157.942 10.3739 157.736 10.5926C157.529 10.8114 157.365 11.0726 157.244 11.3765C157.128 11.6742 157.052 12.0023 157.016 12.3608L156.542 12.6343C156.542 12.0388 156.599 11.4798 156.715 10.9572C156.836 10.4346 157.022 9.97282 157.271 9.57178C157.52 9.16466 157.836 8.84869 158.219 8.62386C158.608 8.39296 159.069 8.27751 159.604 8.27751C159.726 8.27751 159.866 8.2927 160.023 8.32308C160.181 8.34738 160.291 8.37473 160.352 8.40511ZM167.944 16.4077V4.32178H169.639V18.3218H168.09L167.944 16.4077ZM161.309 13.5002V13.3088C161.309 12.5553 161.4 11.8717 161.582 11.258C161.77 10.6382 162.035 10.1065 162.375 9.66292C162.721 9.21935 163.132 8.87907 163.606 8.64209C164.086 8.39903 164.62 8.27751 165.21 8.27751C165.829 8.27751 166.37 8.38688 166.832 8.60563C167.3 8.8183 167.695 9.13124 168.017 9.54443C168.345 9.95155 168.603 10.4437 168.792 11.021C168.98 11.5983 169.111 12.2515 169.184 12.9806V13.8192C169.117 14.5423 168.986 15.1924 168.792 15.7697C168.603 16.347 168.345 16.8391 168.017 17.2463C167.695 17.6534 167.3 17.9663 166.832 18.1851C166.364 18.3977 165.817 18.5041 165.191 18.5041C164.614 18.5041 164.086 18.3795 163.606 18.1304C163.132 17.8812 162.721 17.5318 162.375 17.0822C162.035 16.6325 161.77 16.1039 161.582 15.4963C161.4 14.8825 161.309 14.2172 161.309 13.5002ZM163.004 13.3088V13.5002C163.004 13.9923 163.053 14.4542 163.15 14.8856C163.253 15.317 163.411 15.6968 163.624 16.0249C163.836 16.353 164.107 16.6113 164.435 16.7996C164.763 16.9819 165.155 17.0731 165.611 17.0731C166.17 17.0731 166.629 16.9546 166.987 16.7176C167.352 16.4806 167.643 16.1677 167.862 15.7788C168.081 15.3899 168.251 14.9676 168.372 14.5119V12.3153C168.3 11.9811 168.193 11.659 168.053 11.3491C167.92 11.0331 167.744 10.7536 167.525 10.5106C167.312 10.2614 167.048 10.064 166.732 9.91813C166.422 9.7723 166.054 9.69938 165.629 9.69938C165.167 9.69938 164.769 9.7966 164.435 9.99105C164.107 10.1794 163.836 10.4407 163.624 10.7749C163.411 11.103 163.253 11.4858 163.15 11.9233C163.053 12.3548 163.004 12.8166 163.004 13.3088ZM171.818 13.5002V13.2905C171.818 12.5796 171.921 11.9203 172.128 11.3127C172.334 10.6989 172.632 10.1673 173.021 9.71761C173.41 9.26188 173.881 8.90945 174.434 8.66032C174.987 8.40511 175.606 8.27751 176.293 8.27751C176.986 8.27751 177.609 8.40511 178.162 8.66032C178.721 8.90945 179.194 9.26188 179.583 9.71761C179.978 10.1673 180.279 10.6989 180.486 11.3127C180.692 11.9203 180.796 12.5796 180.796 13.2905V13.5002C180.796 14.2111 180.692 14.8704 180.486 15.478C180.279 16.0857 179.978 16.6174 179.583 17.0731C179.194 17.5227 178.724 17.8752 178.171 18.1304C177.624 18.3795 177.004 18.5041 176.311 18.5041C175.619 18.5041 174.996 18.3795 174.443 18.1304C173.89 17.8752 173.416 17.5227 173.021 17.0731C172.632 16.6174 172.334 16.0857 172.128 15.478C171.921 14.8704 171.818 14.2111 171.818 13.5002ZM173.504 13.2905V13.5002C173.504 13.9923 173.562 14.4572 173.677 14.8947C173.793 15.3261 173.966 15.7089 174.197 16.0431C174.434 16.3773 174.728 16.6417 175.081 16.8361C175.433 17.0245 175.843 17.1187 176.311 17.1187C176.773 17.1187 177.177 17.0245 177.523 16.8361C177.876 16.6417 178.168 16.3773 178.398 16.0431C178.629 15.7089 178.803 15.3261 178.918 14.8947C179.04 14.4572 179.1 13.9923 179.1 13.5002V13.2905C179.1 12.8044 179.04 12.3456 178.918 11.9142C178.803 11.4767 178.626 11.0909 178.389 10.7567C178.158 10.4164 177.867 10.149 177.514 9.95459C177.168 9.76014 176.761 9.66292 176.293 9.66292C175.831 9.66292 175.424 9.76014 175.072 9.95459C174.725 10.149 174.434 10.4164 174.197 10.7567C173.966 11.0909 173.793 11.4767 173.677 11.9142C173.562 12.3456 173.504 12.8044 173.504 13.2905ZM184.606 4.32178V18.3218H182.91V4.32178H184.606ZM190.63 8.4598L186.328 13.0627L183.922 15.5601L183.785 13.7645L185.508 11.7046L188.57 8.4598H190.63ZM189.09 18.3218L185.572 13.6187L186.447 12.1147L191.077 18.3218H189.09ZM198.186 16.6356V11.5588C198.186 11.1699 198.107 10.8326 197.949 10.547C197.797 10.2554 197.566 10.0305 197.257 9.87256C196.947 9.71457 196.564 9.63558 196.108 9.63558C195.683 9.63558 195.309 9.7085 194.987 9.85433C194.671 10.0002 194.422 10.1916 194.24 10.4285C194.063 10.6655 193.975 10.9207 193.975 11.1942H192.289C192.289 10.8417 192.38 10.4923 192.563 10.146C192.745 9.79964 193.006 9.48671 193.346 9.20719C193.693 8.9216 194.106 8.69678 194.586 8.53271C195.072 8.36258 195.613 8.27751 196.208 8.27751C196.925 8.27751 197.557 8.39903 198.104 8.64209C198.657 8.88514 199.089 9.25277 199.398 9.74495C199.714 10.2311 199.872 10.8417 199.872 11.577V16.1707C199.872 16.4989 199.9 16.8483 199.954 17.2189C200.015 17.5896 200.103 17.9086 200.219 18.1759V18.3218H198.46C198.375 18.1273 198.308 17.8691 198.259 17.547C198.211 17.2189 198.186 16.9151 198.186 16.6356ZM198.478 12.3426L198.496 13.5275H196.792C196.312 13.5275 195.883 13.567 195.507 13.646C195.13 13.7189 194.814 13.8313 194.559 13.9832C194.303 14.1351 194.109 14.3266 193.975 14.5575C193.842 14.7823 193.775 15.0466 193.775 15.3504C193.775 15.6603 193.845 15.9429 193.984 16.1981C194.124 16.4533 194.334 16.6568 194.613 16.8088C194.899 16.9546 195.248 17.0275 195.662 17.0275C196.178 17.0275 196.634 16.9181 197.029 16.6994C197.424 16.4806 197.737 16.2133 197.968 15.8973C198.204 15.5813 198.332 15.2745 198.35 14.9767L199.07 15.7879C199.028 16.0431 198.912 16.3257 198.724 16.6356C198.536 16.9455 198.283 17.2432 197.968 17.5288C197.658 17.8083 197.287 18.0423 196.856 18.2306C196.43 18.4129 195.95 18.5041 195.415 18.5041C194.747 18.5041 194.161 18.3734 193.656 18.1121C193.158 17.8509 192.769 17.5015 192.49 17.064C192.216 16.6204 192.079 16.1252 192.079 15.5783C192.079 15.0496 192.183 14.5848 192.389 14.1838C192.596 13.7766 192.894 13.4394 193.283 13.172C193.672 12.8986 194.139 12.692 194.686 12.5522C195.233 12.4125 195.844 12.3426 196.518 12.3426H198.478ZM204.211 10.5653V18.3218H202.525V8.4598H204.12L204.211 10.5653ZM203.81 13.0171L203.108 12.9897C203.114 12.3153 203.214 11.6924 203.409 11.1213C203.603 10.544 203.877 10.0427 204.229 9.61735C204.582 9.192 205.001 8.86388 205.487 8.63297C205.979 8.396 206.523 8.27751 207.119 8.27751C207.605 8.27751 208.042 8.34435 208.431 8.47803C208.82 8.60563 209.151 8.81223 209.425 9.09782C209.704 9.38341 209.917 9.75407 210.063 10.2098C210.208 10.6595 210.281 11.2094 210.281 11.8595V18.3218H208.586V11.8413C208.586 11.3248 208.51 10.9116 208.358 10.6017C208.206 10.2858 207.984 10.0579 207.693 9.91813C207.401 9.7723 207.043 9.69938 206.617 9.69938C206.198 9.69938 205.815 9.78749 205.469 9.9637C205.129 10.1399 204.834 10.383 204.585 10.6929C204.342 11.0028 204.15 11.3582 204.01 11.7593C203.877 12.1542 203.81 12.5735 203.81 13.0171Z" fill="black"/>
<a href="https://airdokan.com/">
<rect fill="black" fill-opacity="0" x="138.25" y="3.0625" width="73.9648" height="21.875"/>
</a>
</svg>
