<svg width="156" height="26" viewBox="0 0 156 26" fill="none" xmlns="http://www.w3.org/2000/svg">
<g clip-path="url(#clip0_556_183)">
<path d="M12.7613 0.953177C13.2196 -0.135435 14.7806 -0.135434 15.2389 0.95318L17.9439 7.37836C18.1373 7.8373 18.5742 8.15087 19.0756 8.19059L26.097 8.74669C27.2866 8.84091 27.769 10.3076 26.8626 11.0746L21.5131 15.6016C21.131 15.925 20.9641 16.4324 21.0808 16.9158L22.7152 23.6847C22.9921 24.8315 21.7293 25.7381 20.7107 25.1235L14.6995 21.4961C14.2701 21.237 13.7301 21.237 13.3007 21.4961L7.2894 25.1235C6.2709 25.7381 5.00802 24.8315 5.28493 23.6847L6.91931 16.9158C7.03605 16.4324 6.86918 15.925 6.48709 15.6016L1.1375 11.0746C0.231124 10.3076 0.713505 8.84091 1.90314 8.74669L8.92456 8.19059C9.42608 8.15087 9.86296 7.8373 10.0562 7.37836L12.7613 0.953177Z" fill="#006B6A"/>
<path d="M44.7613 0.953177C45.2196 -0.135435 46.7806 -0.135434 47.2389 0.95318L49.9439 7.37836C50.1373 7.8373 50.5742 8.15087 51.0756 8.19059L58.097 8.74669C59.2866 8.84091 59.769 10.3076 58.8626 11.0746L53.5131 15.6016C53.131 15.925 52.9641 16.4324 53.0808 16.9158L54.7152 23.6847C54.9921 24.8315 53.7293 25.7381 52.7107 25.1235L46.6995 21.4961C46.2701 21.237 45.7301 21.237 45.3007 21.4961L39.2894 25.1235C38.2709 25.7381 37.008 24.8315 37.2849 23.6847L38.9193 16.9158C39.0361 16.4324 38.8692 15.925 38.4871 15.6016L33.1375 11.0746C32.2311 10.3076 32.7135 8.84091 33.9031 8.74669L40.9246 8.19059C41.4261 8.15087 41.863 7.8373 42.0562 7.37836L44.7613 0.953177Z" fill="#006B6A"/>
<path d="M76.7613 0.953177C77.2196 -0.135435 78.7806 -0.135434 79.2389 0.95318L81.9439 7.37836C82.1373 7.8373 82.5742 8.15087 83.0756 8.19059L90.097 8.74669C91.2866 8.84091 91.769 10.3076 90.8626 11.0746L85.5131 15.6016C85.131 15.925 84.9641 16.4324 85.0808 16.9158L86.7152 23.6847C86.9921 24.8315 85.7293 25.7381 84.7107 25.1235L78.6995 21.4961C78.2701 21.237 77.7301 21.237 77.3007 21.4961L71.2894 25.1235C70.2709 25.7381 69.008 24.8315 69.2849 23.6847L70.9193 16.9158C71.0361 16.4324 70.8692 15.925 70.4871 15.6016L65.1375 11.0746C64.2311 10.3076 64.7135 8.84091 65.9031 8.74669L72.9246 8.19059C73.4261 8.15087 73.863 7.8373 74.0562 7.37836L76.7613 0.953177Z" fill="#006B6A"/>
<path d="M108.761 0.953177C109.219 -0.135435 110.78 -0.135434 111.239 0.95318L113.944 7.37836C114.137 7.8373 114.574 8.15087 115.075 8.19059L122.097 8.74669C123.286 8.84091 123.769 10.3076 122.862 11.0746L117.513 15.6016C117.131 15.925 116.964 16.4324 117.081 16.9158L118.715 23.6847C118.992 24.8315 117.729 25.7381 116.711 25.1235L110.699 21.4961C110.27 21.237 109.73 21.237 109.3 21.4961L103.289 25.1235C102.271 25.7381 101.008 24.8315 101.285 23.6847L102.919 16.9158C103.036 16.4324 102.869 15.925 102.487 15.6016L97.1373 11.0746C96.2309 10.3076 96.7133 8.84091 97.9029 8.74669L104.924 8.19059C105.426 8.15087 105.863 7.8373 106.056 7.37836L108.761 0.953177Z" fill="#006B6A"/>
<path d="M140.761 0.953177C141.219 -0.135435 142.78 -0.135434 143.239 0.95318L145.944 7.37836C146.137 7.8373 146.574 8.15087 147.075 8.19059L154.097 8.74669C155.286 8.84091 155.769 10.3076 154.862 11.0746L149.513 15.6016C149.131 15.925 148.964 16.4324 149.081 16.9158L150.715 23.6847C150.992 24.8315 149.729 25.7381 148.711 25.1235L142.699 21.4961C142.27 21.237 141.73 21.237 141.3 21.4961L135.289 25.1235C134.271 25.7381 133.008 24.8315 133.285 23.6847L134.919 16.9158C135.036 16.4324 134.869 15.925 134.487 15.6016L129.137 11.0746C128.231 10.3076 128.713 8.84091 129.903 8.74669L136.924 8.19059C137.426 8.15087 137.863 7.8373 138.056 7.37836L140.761 0.953177Z" fill="#006B6A"/>
</g>
<defs>
<clipPath id="clip0_556_183">
<rect width="154.666" height="25.1852" fill="white" transform="translate(0.666748 0.136719)"/>
</clipPath>
</defs>
</svg>
